<svg xmlns="http://www.w3.org/2000/svg" version="1.1" xmlns:xlink="http://www.w3.org/1999/xlink" xmlns:svgjs="http://svgjs.dev/svgjs" width="1920" height="1080" preserveAspectRatio="none" viewBox="0 0 1920 1080"><g mask="url(&quot;#SvgjsMask1079&quot;)" fill="none"><rect width="1920" height="1080" x="0" y="0" fill="rgba(238, 239, 239, 1)"></rect><path d="M0,556.951C131.14,552.646,273.66,668.512,383.588,596.874C493.657,525.144,464.67,355.299,502.497,229.483C534.397,123.381,596.864,25.866,588.478,-84.61C579.794,-199.022,534.69,-311.694,455.142,-394.383C377.465,-475.127,262.473,-496.69,156.648,-533.492C45.073,-572.294,-65.116,-639.751,-180.733,-615.519C-298.958,-590.74,-394.526,-501.067,-465.257,-403.147C-532.445,-310.133,-538.949,-192.834,-566.511,-81.452C-597.483,43.71,-666.659,165.429,-637.004,290.91C-605.11,425.866,-528.084,569.161,-400.123,622.603C-272.827,675.767,-137.878,561.477,0,556.951" fill="#dfe1e1"></path><path d="M1920 1513.221C2035.039 1508.349 2148.865 1648.751 2249.109 1592.104 2347.5389999999998 1536.482 2296.83 1376.383 2343.986 1273.628 2391.275 1170.5819999999999 2540.9610000000002 1105.261 2523.9700000000003 993.162 2506.945 880.836 2353.467 853.5219999999999 2268.826 777.741 2197.548 713.924 2148.309 631.683 2065.916 583.056 1964.255 523.057 1850.541 425.231 1739.523 465.35299999999995 1627.0439999999999 506.00300000000004 1628.1770000000001 669.514 1558.238 766.5319999999999 1496.839 851.704 1391.4740000000002 900.31 1354.995 998.765 1314.3220000000001 1108.54 1306.1219999999998 1232.195 1344.761 1342.703 1385.1190000000001 1458.128 1455.238 1586.01 1572.473 1620.762 1691.138 1655.938 1796.342 1518.458 1920 1513.221" fill="#fdfdfd"></path></g><defs><mask id="SvgjsMask1079"><rect width="1920" height="1080" fill="#ffffff"></rect></mask></defs></svg>