<svg xmlns="http://www.w3.org/2000/svg" version="1.1" xmlns:xlink="http://www.w3.org/1999/xlink" xmlns:svgjs="http://svgjs.dev/svgjs" width="1540" height="100" preserveAspectRatio="none" viewBox="0 0 1540 100"><g mask="url(&quot;#SvgjsMask1046&quot;)" fill="none"><rect width="1540" height="100" x="0" y="0" fill="rgba(240, 241, 242, 1)"></rect><path d="M -179.31319904155765,32 C -102.31,45.4 51.69,103.6 205.68680095844235,99 C 359.69,94.4 436.69,8.8 590.6868009584423,9 C 744.69,9.2 821.69,96.6 975.6868009584423,100 C 1129.69,103.4 1206.69,34.4 1360.6868009584423,26 C 1514.69,17.6 1709.82,57.4 1745.6868009584423,58 C 1781.55,58.6 1581.14,34.8 1540,29" stroke="rgba(51, 121, 194, 0.58)" stroke-width="2"></path><path d="M -610.9350976653934,66 C -533.94,57.2 -379.94,15.2 -225.93509766539339,22 C -71.94,28.8 5.06,95.2 159.06490233460661,100 C 313.06,104.8 390.06,47 544.0649023346066,46 C 698.06,45 775.06,99 929.0649023346066,95 C 1083.06,91 1191.88,26.6 1314.0649023346066,26 C 1436.25,25.4 1494.81,78.8 1540,92" stroke="rgba(51, 121, 194, 0.58)" stroke-width="2"></path><path d="M -419.9114106531097,71 C -342.91,64.8 -188.91,37.6 -34.91141065310975,40 C 119.09,42.4 196.09,88.4 350.0885893468903,83 C 504.09,77.6 581.09,18.4 735.0885893468902,13 C 889.09,7.6 966.09,52.8 1120.0885893468903,56 C 1274.09,59.2 1421.11,26.6 1505.0885893468903,29 C 1589.07,31.4 1533.02,60.2 1540,68" stroke="rgba(51, 121, 194, 0.58)" stroke-width="2"></path></g><defs><mask id="SvgjsMask1046"><rect width="1540" height="100" fill="#ffffff"></rect></mask></defs></svg>