<svg xmlns="http://www.w3.org/2000/svg" version="1.1" xmlns:xlink="http://www.w3.org/1999/xlink" xmlns:svgjs="http://svgjs.dev/svgjs" width="1440" height="560" preserveAspectRatio="none" viewBox="0 0 1440 560"><g mask="url(&quot;#SvgjsMask1009&quot;)" fill="none"><path d="M -517.5836796438327,383 C -421.58,340.8 -229.58,182 -37.58367964383272,172 C 154.42,162 250.42,312 442.41632035616726,333 C 634.42,354 730.42,272.2 922.4163203561673,277 C 1114.42,281.8 1298.9,398.8 1402.4163203561673,357 C 1505.93,315.2 1432.48,125.8 1440,68" stroke="rgba(51, 121, 194, 0.58)" stroke-width="2"></path><path d="M -241.43428751627903,483 C -145.43,425.2 46.57,207.4 238.56571248372097,194 C 430.57,180.6 526.57,409.2 718.565712483721,416 C 910.57,422.8 1006.57,219.4 1198.565712483721,228 C 1390.57,236.6 1630.28,480.2 1678.565712483721,459 C 1726.85,437.8 1487.71,189.4 1440,122" stroke="rgba(51, 121, 194, 0.58)" stroke-width="2"></path><path d="M -554.7756202259795,145 C -458.78,185.6 -266.78,324.2 -74.77562022597958,348 C 117.22,371.8 213.22,251.2 405.2243797740204,264 C 597.22,276.8 693.22,435.6 885.2243797740205,412 C 1077.22,388.4 1254.27,160.8 1365.2243797740205,146 C 1476.18,131.2 1425.04,299.6 1440,338" stroke="rgba(51, 121, 194, 0.58)" stroke-width="2"></path><path d="M -397.3420457163172,442 C -301.34,408 -109.34,291.2 82.65795428368278,272 C 274.66,252.8 370.66,372 562.6579542836828,346 C 754.66,320 850.66,111.2 1042.6579542836828,142 C 1234.66,172.8 1443.19,505.2 1522.6579542836828,500 C 1602.13,494.8 1456.53,192.8 1440,116" stroke="rgba(51, 121, 194, 0.58)" stroke-width="2"></path><path d="M -727.6616941161033,295 C -631.66,276 -439.66,183.2 -247.66169411610326,200 C -55.66,216.8 40.34,385.8 232.33830588389674,379 C 424.34,372.2 520.34,153.6 712.3383058838967,166 C 904.34,178.4 1046.81,441 1192.3383058838967,441 C 1337.87,441 1390.47,221 1440,166" stroke="rgba(51, 121, 194, 0.58)" stroke-width="2"></path></g><defs><mask id="SvgjsMask1009"><rect width="1440" height="560" fill="#ffffff"></rect></mask></defs></svg>