<svg xmlns="http://www.w3.org/2000/svg" version="1.1" xmlns:xlink="http://www.w3.org/1999/xlink" xmlns:svgjs="http://svgjs.dev/svgjs" width="1440" height="100" preserveAspectRatio="none" viewBox="0 0 1440 100"><g mask="url(&quot;#SvgjsMask1022&quot;)" fill="none"><rect width="1440" height="100" x="0" y="0" fill="rgba(213, 226, 240, 1)"></rect><path d="M -273.35843186664874,43 C -201.36,50.8 -57.36,85.8 86.64156813335123,82 C 230.64,78.2 302.64,22.8 446.64156813335126,24 C 590.64,25.2 662.64,87.6 806.6415681333513,88 C 950.64,88.4 1022.64,31.8 1166.6415681333513,26 C 1310.64,20.2 1471.97,62 1526.6415681333513,59 C 1581.31,56 1457.33,20.6 1440,11" stroke="rgba(51, 121, 194, 0.58)" stroke-width="2"></path><path d="M -139.37790492731594,81 C -67.38,69.2 76.62,28 220.62209507268406,22 C 364.62,16 436.62,49 580.622095072684,51 C 724.62,53 796.62,31.6 940.622095072684,32 C 1084.62,32.4 1156.62,53.2 1300.622095072684,53 C 1444.62,52.8 1632.75,29.8 1660.622095072684,31 C 1688.5,32.2 1484.12,53.4 1440,59" stroke="rgba(51, 121, 194, 0.58)" stroke-width="2"></path><path d="M -607.5479328797536,44 C -535.55,48.6 -391.55,70.6 -247.5479328797536,67 C -103.55,63.4 -31.55,24.4 112.4520671202464,26 C 256.45,27.6 328.45,78 472.4520671202464,75 C 616.45,72 688.45,15 832.4520671202464,11 C 976.45,7 1070.94,52.8 1192.4520671202463,55 C 1313.96,57.2 1390.49,28.6 1440,22" stroke="rgba(51, 121, 194, 0.58)" stroke-width="2"></path></g><defs><mask id="SvgjsMask1022"><rect width="1440" height="100" fill="#ffffff"></rect></mask></defs></svg>